<svg xmlns="http://www.w3.org/2000/svg" width="472" height="80" viewBox="17.2 22.1 47.1 8.2" role="img" aria-label="Trennen">
  <title id="title">TRENNEN</title>
  <g fill="#E5E1D6">
    <path d="M19.934 24.048h-1.942v-.985h5.012v.985h-1.942V29.4h-1.128Zm4.284-.985h2.202q.447 0 .868.094.42.094.747.31.327.214.524.563t.197.85q0 .69-.39 1.123-.389.435-1.06.587l1.691 2.81h-1.36l-1.468-2.685h-.823V29.4h-1.128Zm2.05 2.73q.241 0 .483-.036t.434-.134.318-.282.125-.47q0-.26-.116-.425-.117-.165-.296-.264-.179-.098-.407-.134t-.443-.036h-1.02v1.781Zm4.06-2.73h4.197v.985h-3.07v1.61h2.91v.95h-2.91v1.79h3.231V29.4h-4.358Zm5.94 0h1.494l2.944 4.744h.018v-4.744h1.128V29.4H40.42l-3.007-4.896h-.018V29.4h-1.128Z"/>
    <path d="M44.148 23.063h1.495l2.944 4.744h.018v-4.744h1.128V29.4H48.3l-3.007-4.896h-.018V29.4h-1.128Zm7.461 0h4.198v.985h-3.07v1.61h2.909v.95h-2.91v1.79h3.232V29.4h-4.359Zm5.94 0h1.494l2.945 4.744h.018v-4.744h1.127V29.4h-1.432l-3.007-4.896h-.018V29.4H57.55Z"/>
  </g>
</svg>
